<svg width="214" height="683" viewBox="0 0 214 683" fill="none" xmlns="http://www.w3.org/2000/svg">
<g id="blue_paint" clip-path="url(#clip0)">
<rect width="214" height="683" fill="white"/>
<g id="blue_paint_2" filter="url(#filter0_d)">
<g id="blue_paint_big_part">
<path id="Vector 2" d="M12 133.5C12.8 121.1 4 115.667 -0.5 114.5L-7 110.5L-0.5 -6H236.5V90C236.5 91.5 226.5 93 208 117C189.5 141 181.5 133.5 173 129.5C164.5 125.5 153.5 105 152.5 104C151.5 103 145 93 143 90C141 87 130.5 81.5 119.5 90C110.7 96.8 107 117 107 143C106 188 107.5 153 106 188.5C105.699 195.619 104.133 193.975 103.5 188.5C102.785 182.318 105.273 175.576 100.5 183C95 191 95 185 92.5 183C87.3833 178.907 85.3405 189.095 85.5 187.5C87.6445 166.055 87 179.5 84 148C78.03 85.3154 43.913 99 39.913 117C34.913 139.5 40.913 167.5 40.913 168.5C40.913 169.5 42.5 194 22.5 189.5C2.5 185 11 149 12 133.5Z" fill="#00FFF0" stroke="#00FFF0"/>
<g id="Vector 3" filter="url(#filter1_f)">
<path d="M26.5 186C24.5 185 23.5 183 23.5 180.5C23.5 178 31 178 32 180.5C33 183 28.5 187 26.5 186Z" fill="white"/>
<path d="M26.5 186C24.5 185 23.5 183 23.5 180.5C23.5 178 31 178 32 180.5C33 183 28.5 187 26.5 186Z" stroke="#00FFF0" stroke-opacity="0.5"/>
</g>
</g>
<g id="drops">
<path id="blue_paint_large_drop" d="M106.5 141C106.5 156.169 120.651 197 111.651 211C106.151 219 87.3148 219.625 82.6512 209C76.4817 194.944 84.3405 162.095 84.5 160.5C85.4455 151.045 91.1839 135.46 93.5 118.5C96.4372 96.9929 95.6614 97.08 96.5 84.5C96.8589 87.012 95.7431 72.1445 99 96C99.8313 102.089 104 119 104.5 127C105.5 136 106.5 138.192 106.5 141Z" fill="#00FFF0" stroke="#00FFF0"/>
<g id="blue_paint_small_drop">
<path id="Vector 5" d="M96.1439 144C96.6002 145.494 102.669 171.527 105.863 178.355C108.821 184.679 119.095 202.467 110.882 208.442C105.863 211.856 88.6748 212.123 84.4192 207.588C78.7895 201.59 84.73 187.144 84.8755 186.463C85.7382 182.428 87.7646 175.564 89.8781 168.326C92.5583 159.147 95.3786 149.369 96.1439 144Z" fill="#00FFF0" stroke="#00FFF0"/>
<g id="Vector 6" filter="url(#filter2_f)">
<path d="M96 202.375C94 201.375 93 199.375 93 196.875C93 194.375 100.5 194.375 101.5 196.875C102.5 199.375 98 203.375 96 202.375Z" fill="white"/>
<path d="M96 202.375C94 201.375 93 199.375 93 196.875C93 194.375 100.5 194.375 101.5 196.875C102.5 199.375 98 203.375 96 202.375Z" stroke="#00FFF0" stroke-opacity="0.5"/>
</g>
</g>
</g>
</g>
</g>
<defs>
<filter id="filter0_d" x="-11.5158" y="-6.5" width="252.516" height="231.994" filterUnits="userSpaceOnUse" color-interpolation-filters="sRGB">
<feFlood flood-opacity="0" result="BackgroundImageFix"/>
<feColorMatrix in="SourceAlpha" type="matrix" values="0 0 0 0 0 0 0 0 0 0 0 0 0 0 0 0 0 0 127 0"/>
<feOffset dy="4"/>
<feGaussianBlur stdDeviation="2"/>
<feColorMatrix type="matrix" values="0 0 0 0 0 0 0 0 0 0 0 0 0 0 0 0 0 0 0.25 0"/>
<feBlend mode="normal" in2="BackgroundImageFix" result="effect1_dropShadow"/>
<feBlend mode="normal" in="SourceGraphic" in2="effect1_dropShadow" result="shape"/>
</filter>
<filter id="filter1_f" x="19" y="174.125" width="17.6432" height="16.5323" filterUnits="userSpaceOnUse" color-interpolation-filters="sRGB">
<feFlood flood-opacity="0" result="BackgroundImageFix"/>
<feBlend mode="normal" in="SourceGraphic" in2="BackgroundImageFix" result="shape"/>
<feGaussianBlur stdDeviation="2" result="effect1_foregroundBlur"/>
</filter>
<filter id="filter2_f" x="88.5" y="190.5" width="17.6432" height="16.5323" filterUnits="userSpaceOnUse" color-interpolation-filters="sRGB">
<feFlood flood-opacity="0" result="BackgroundImageFix"/>
<feBlend mode="normal" in="SourceGraphic" in2="BackgroundImageFix" result="shape"/>
<feGaussianBlur stdDeviation="2" result="effect1_foregroundBlur"/>
</filter>
<clipPath id="clip0">
<rect width="214" height="683" fill="white"/>
</clipPath>
</defs>
</svg>
